<?xml version="1.0" encoding="utf-8"?>
<!-- Generator: Adobe Illustrator 16.0.0, SVG Export Plug-In . SVG Version: 6.00 Build 0)  -->
<!DOCTYPE svg PUBLIC "-//W3C//DTD SVG 1.1//EN" "http://www.w3.org/Graphics/SVG/1.1/DTD/svg11.dtd">
<svg version="1.1" id="Capa_3" xmlns="http://www.w3.org/2000/svg" xmlns:xlink="http://www.w3.org/1999/xlink" x="0px" y="0px"
	 width="128px" height="128px" viewBox="0 0 128 128" enable-background="new 0 0 128 128" xml:space="preserve">
<rect fill="#FFFFFF" width="128" height="128"/>
<g>
	<path fill="#282828" d="M64,3.312C30.484,3.312,3.313,30.484,3.313,64c0,33.516,27.171,60.688,60.687,60.688
		c33.516,0,60.688-27.172,60.688-60.688C124.688,30.484,97.516,3.312,64,3.312z M64,121.286c-31.587,0-57.286-25.7-57.286-57.287
		C6.714,32.412,32.413,6.713,64,6.713c31.588,0,57.287,25.699,57.287,57.287C121.286,95.586,95.588,121.286,64,121.286z"/>
	<circle fill="#282828" cx="63.894" cy="51.139" r="21.469"/>
	<path fill="#282828" d="M64.107,76.224c-15.802,0-29.658,9.711-37.478,24.305c9.509,9.782,22.791,15.873,37.476,15.873
		c14.688,0,27.969-6.091,37.479-15.873C93.766,85.935,79.908,76.224,64.107,76.224z"/>
</g>
</svg>
